<svg xmlns="http://www.w3.org/2000/svg" viewBox="0 0 1440 480" width="1440" height="480">
  <defs>
    <!-- tfwatch logo gradients (from your reference logo snippet) -->
    <linearGradient id="towerGrad" x1="0" y1="0" x2="0" y2="1">
      <stop offset="0%" stop-color="#4A90C4"/>
      <stop offset="100%" stop-color="#2C5F8A"/>
    </linearGradient>
    <linearGradient id="circleGrad" x1="0" y1="0" x2="1" y2="1">
      <stop offset="0%" stop-color="#1E3A5F"/>
      <stop offset="100%" stop-color="#2C5F8A"/>
    </linearGradient>
    <linearGradient id="roofGrad" x1="0" y1="0" x2="0" y2="1">
      <stop offset="0%" stop-color="#1E3A5F"/>
      <stop offset="100%" stop-color="#2C5F8A"/>
    </linearGradient>
    <linearGradient id="glassGrad" x1="0" y1="0" x2="1" y2="1">
      <stop offset="0%" stop-color="#8BADC4"/>
      <stop offset="100%" stop-color="#6B8DA8"/>
    </linearGradient>

    <!-- Fix: define the mark in its own viewBox so it stays upright + centered -->
    <symbol id="tfwatchMark" viewBox="0 0 240 240">
      <!-- Outer circle -->
      <circle cx="120" cy="120" r="100" fill="none" stroke="url(#circleGrad)" stroke-width="8"/>

      <!-- Tower body -->
      <path d="M105 78 L95 185 L145 185 L135 78 Z" fill="url(#towerGrad)" opacity="0.85"/>
      <path d="M113 78 L106 185 L134 185 L127 78 Z" fill="#6BADD6" opacity="0.5"/>

      <!-- Tower cross beams -->
      <line x1="100" y1="115" x2="140" y2="115" stroke="#1E3A5F" stroke-width="2.5" opacity="0.6"/>
      <line x1="97" y1="145" x2="143" y2="145" stroke="#1E3A5F" stroke-width="2.5" opacity="0.6"/>
      <!-- Diagonal beams -->
      <line x1="102" y1="115" x2="140" y2="145" stroke="#1E3A5F" stroke-width="1.8" opacity="0.4"/>
      <line x1="138" y1="115" x2="100" y2="145" stroke="#1E3A5F" stroke-width="1.8" opacity="0.4"/>

      <!-- Roof -->
      <polygon points="120,50 100,78 140,78" fill="url(#roofGrad)"/>
      <polygon points="120,50 120,78 140,78" fill="#3A7CB8" opacity="0.3"/>

      <!-- Signal waves - left -->
      <path d="M82 85 Q70 100 82 115" fill="none" stroke="#4A9BD9" stroke-width="3.5" stroke-linecap="round" opacity="0.8"/>
      <path d="M70 78 Q54 100 70 122" fill="none" stroke="#4A9BD9" stroke-width="3" stroke-linecap="round" opacity="0.6"/>
      <path d="M58 72 Q38 100 58 128" fill="none" stroke="#4A9BD9" stroke-width="2.5" stroke-linecap="round" opacity="0.4"/>

      <!-- Signal waves - right -->
      <path d="M158 85 Q170 100 158 115" fill="none" stroke="#4A9BD9" stroke-width="3.5" stroke-linecap="round" opacity="0.8"/>
      <path d="M170 78 Q186 100 170 122" fill="none" stroke="#4A9BD9" stroke-width="3" stroke-linecap="round" opacity="0.6"/>
      <path d="M182 72 Q202 100 182 128" fill="none" stroke="#4A9BD9" stroke-width="2.5" stroke-linecap="round" opacity="0.4"/>

      <!-- Magnifying glass -->
      <circle cx="130" cy="140" r="22" fill="none" stroke="url(#glassGrad)" stroke-width="5"/>
      <circle cx="130" cy="140" r="22" fill="#D6E8F4" opacity="0.25"/>
      <ellipse cx="124" cy="134" rx="8" ry="6" fill="white" opacity="0.2"/>
      <line x1="147" y1="157" x2="165" y2="178" stroke="url(#glassGrad)" stroke-width="6" stroke-linecap="round"/>
      <circle cx="130" cy="140" r="5" fill="#4A9BD9" opacity="0.5"/>
    </symbol>

    <!-- Darkening overlay (transparent bg; darkens all artwork more) -->
    <filter id="darken" x="-20%" y="-20%" width="140%" height="140%" color-interpolation-filters="sRGB">
      <feComponentTransfer>
        <feFuncR type="linear" slope="0.72"/>
        <feFuncG type="linear" slope="0.72"/>
        <feFuncB type="linear" slope="0.72"/>
      </feComponentTransfer>
    </filter>
  </defs>

  <style>
    .f { font-family: -apple-system, BlinkMacSystemFont, 'Segoe UI', Roboto, Helvetica, Arial, sans-serif; }
    .mono { font-family: 'SF Mono', 'Fira Code', 'Cascadia Code', Consolas, monospace; }
  </style>

  <g filter="url(#darken)">

    <!-- ============================================ -->
    <!-- LEFT: Terraform Repos                        -->
    <!-- ============================================ -->

    <text x="130" y="34" text-anchor="middle" class="f" font-size="11" font-weight="600" letter-spacing="1.5" fill="#c4a5e6">TERRAFORM REPOS</text>

    <!-- Repo 1 -->
    <rect x="24" y="54" width="212" height="50" rx="8" fill="rgba(123,66,188,0.08)" stroke="rgba(123,66,188,0.4)" stroke-width="1.4"/>
    <g transform="translate(36,66) scale(0.85)">
      <path d="M1.44 0v7.575l6.561 3.79V3.787Z" fill="rgba(123,66,188,0.5)"/>
      <path d="M8.72 4.23v7.575l6.561 3.787V8.018Z" fill="rgba(123,66,188,0.65)"/>
      <path d="M16.56 0.44v7.575l6.561 3.79V4.227Z" fill="rgba(123,66,188,0.5)"/>
      <path d="M8.72 16.577v7.575l6.561 3.787V20.365Z" fill="rgba(123,66,188,0.65)"/>
    </g>
    <text x="64" y="79" class="f" font-size="12.5" font-weight="600" fill="#e0d0f5">networking</text>
    <text x="64" y="94" class="mono" font-size="8.5" fill="rgba(196,165,230,0.6)">s3 · 3 providers · 2 modules</text>

    <!-- Repo 2 -->
    <rect x="24" y="116" width="212" height="50" rx="8" fill="rgba(123,66,188,0.08)" stroke="rgba(123,66,188,0.4)" stroke-width="1.4"/>
    <g transform="translate(36,128) scale(0.85)">
      <path d="M1.44 0v7.575l6.561 3.79V3.787Z" fill="rgba(123,66,188,0.5)"/>
      <path d="M8.72 4.23v7.575l6.561 3.787V8.018Z" fill="rgba(123,66,188,0.65)"/>
      <path d="M16.56 0.44v7.575l6.561 3.79V4.227Z" fill="rgba(123,66,188,0.5)"/>
      <path d="M8.72 16.577v7.575l6.561 3.787V20.365Z" fill="rgba(123,66,188,0.65)"/>
    </g>
    <text x="64" y="141" class="f" font-size="12.5" font-weight="600" fill="#e0d0f5">eks-cluster</text>
    <text x="64" y="156" class="mono" font-size="8.5" fill="rgba(196,165,230,0.6)">cloud · 5 providers · 4 modules</text>

    <!-- Repo 3 -->
    <rect x="24" y="178" width="212" height="50" rx="8" fill="rgba(123,66,188,0.08)" stroke="rgba(123,66,188,0.4)" stroke-width="1.4"/>
    <g transform="translate(36,190) scale(0.85)">
      <path d="M1.44 0v7.575l6.561 3.79V3.787Z" fill="rgba(123,66,188,0.5)"/>
      <path d="M8.72 4.23v7.575l6.561 3.787V8.018Z" fill="rgba(123,66,188,0.65)"/>
      <path d="M16.56 0.44v7.575l6.561 3.79V4.227Z" fill="rgba(123,66,188,0.5)"/>
      <path d="M8.72 16.577v7.575l6.561 3.787V20.365Z" fill="rgba(123,66,188,0.65)"/>
    </g>
    <text x="64" y="203" class="f" font-size="12.5" font-weight="600" fill="#e0d0f5">data-platform</text>
    <text x="64" y="218" class="mono" font-size="8.5" fill="rgba(196,165,230,0.6)">s3 · 4 providers · 6 modules</text>

    <!-- Repo 4 -->
    <rect x="24" y="240" width="212" height="50" rx="8" fill="rgba(123,66,188,0.08)" stroke="rgba(123,66,188,0.4)" stroke-width="1.4"/>
    <g transform="translate(36,252) scale(0.85)">
      <path d="M1.44 0v7.575l6.561 3.79V3.787Z" fill="rgba(123,66,188,0.5)"/>
      <path d="M8.72 4.23v7.575l6.561 3.787V8.018Z" fill="rgba(123,66,188,0.65)"/>
      <path d="M16.56 0.44v7.575l6.561 3.79V4.227Z" fill="rgba(123,66,188,0.5)"/>
      <path d="M8.72 16.577v7.575l6.561 3.787V20.365Z" fill="rgba(123,66,188,0.65)"/>
    </g>
    <text x="64" y="265" class="f" font-size="12.5" font-weight="600" fill="#e0d0f5">iam-security</text>
    <text x="64" y="280" class="mono" font-size="8.5" fill="rgba(196,165,230,0.6)">cloud · 2 providers · 1 module</text>

    <!-- Repo 5 (faded) -->
    <rect x="24" y="302" width="212" height="50" rx="8" fill="rgba(123,66,188,0.04)" stroke="rgba(123,66,188,0.2)" stroke-width="1.2" stroke-dasharray="5,4"/>
    <g transform="translate(36,314) scale(0.85)" opacity="0.5">
      <path d="M1.44 0v7.575l6.561 3.79V3.787Z" fill="rgba(123,66,188,0.5)"/>
      <path d="M8.72 4.23v7.575l6.561 3.787V8.018Z" fill="rgba(123,66,188,0.65)"/>
      <path d="M16.56 0.44v7.575l6.561 3.79V4.227Z" fill="rgba(123,66,188,0.5)"/>
      <path d="M8.72 16.577v7.575l6.561 3.787V20.365Z" fill="rgba(123,66,188,0.65)"/>
    </g>
    <text x="64" y="327" class="f" font-size="12.5" font-weight="600" fill="rgba(224,208,245,0.35)">monitoring</text>
    <text x="64" y="342" class="mono" font-size="8.5" fill="rgba(196,165,230,0.25)">s3 · 2 providers · 3 modules</text>

    <text x="130" y="382" text-anchor="middle" class="f" font-size="10" fill="rgba(196,165,230,0.3)">+ more repos</text>

    <!-- Curves: Repos → tfwatch -->
    <path d="M236,79 C350,79 400,190 480,205" fill="none" stroke="rgba(196,165,230,0.22)" stroke-width="1.4"/>
    <path d="M236,141 C350,141 400,205 480,215" fill="none" stroke="rgba(196,165,230,0.22)" stroke-width="1.4"/>
    <path d="M236,203 C350,203 400,220 480,225" fill="none" stroke="rgba(196,165,230,0.22)" stroke-width="1.4"/>
    <path d="M236,265 C350,265 400,235 480,235" fill="none" stroke="rgba(196,165,230,0.22)" stroke-width="1.4"/>
    <path d="M236,327 C350,327 400,250 480,245" fill="none" stroke="rgba(196,165,230,0.13)" stroke-width="1.1"/>

    <circle r="3" fill="#c4a5e6" opacity="0.5"><animateMotion dur="3.5s" repeatCount="indefinite" path="M236,79 C350,79 400,190 480,205"/></circle>
    <circle r="3" fill="#c4a5e6" opacity="0.5"><animateMotion dur="4s" repeatCount="indefinite" path="M236,141 C350,141 400,205 480,215"/></circle>
    <circle r="3" fill="#c4a5e6" opacity="0.5"><animateMotion dur="4.5s" repeatCount="indefinite" path="M236,203 C350,203 400,220 480,225"/></circle>
    <circle r="3" fill="#c4a5e6" opacity="0.5"><animateMotion dur="3.8s" repeatCount="indefinite" path="M236,265 C350,265 400,235 480,235"/></circle>

    <!-- ============================================ -->
    <!-- CENTER: tfwatch (FIXED: upright + centered)  -->
    <!-- ============================================ -->

    <rect x="480" y="155" width="280" height="140" rx="14" fill="rgba(255,255,255,0.06)" stroke="rgba(255,255,255,0.2)" stroke-width="1.8"/>

    <!-- Replace the old circle/tower icon with the real mark placed via viewBox -->
    <use href="#tfwatchMark" x="505" y="178" width="94" height="94" preserveAspectRatio="xMidYMid meet"/>

    <!-- Wordmark in logo colors -->
    <text x="610" y="220" class="f" font-size="36" font-weight="700" fill="#1E3A5F" letter-spacing="-1">tf</text>
    <text x="644" y="220" class="f" font-size="36" font-weight="400" fill="#4A9BD9" letter-spacing="-1">watch</text>
    <text x="610" y="242" class="f" font-size="11.5" fill="rgba(255,255,255,0.35)" letter-spacing="0.3">Dependency Intelligence</text>

    <!-- Metric name pill -->
    <rect x="508" y="268" width="224" height="20" rx="4" fill="rgba(74,155,217,0.1)"/>
    <text x="620" y="282" text-anchor="middle" class="mono" font-size="10" fill="rgba(74,155,217,0.65)">terraform_dependency_version</text>

    <!-- tfwatch → Collector -->
    <path d="M760,225 C810,225 830,225 870,225" fill="none" stroke="rgba(74,155,217,0.35)" stroke-width="1.8"/>
    <polygon points="870,225 862,220 862,230" fill="rgba(74,155,217,0.35)"/>
    <circle r="3.5" fill="#4A9BD9" opacity="0.5"><animateMotion dur="2s" repeatCount="indefinite" path="M760,225 C810,225 830,225 870,225"/></circle>
    <rect x="784" y="206" width="52" height="14" rx="3" fill="rgba(74,155,217,0.1)"/>
    <text x="810" y="216" text-anchor="middle" class="f" font-size="8" font-weight="500" fill="rgba(74,155,217,0.65)" letter-spacing="0.8">OTLP gRPC</text>

    <!-- OTEL Collector -->
    <rect x="870" y="193" width="160" height="64" rx="10" fill="rgba(74,155,217,0.06)" stroke="rgba(74,155,217,0.35)" stroke-width="1.4"/>
    <g transform="translate(890,209) scale(1.333)">
      <path d="M12.6974 13.1173c-1.0224 1.0224-1.0224 2.68 0 3.7024 1.0224 1.0224 2.68 1.0224 3.7024 0 1.0224-1.0223 1.0224-2.68 0-3.7024-1.0223-1.0223-2.68-1.0223-3.7024 0zm2.7677 2.7701c-.5063.5063-1.3267.5063-1.833 0s-.5063-1.3266 0-1.833c.5063-.5062 1.3267-.5062 1.833 0 .5063.504.5063 1.3267 0 1.833zM16.356.2355l-1.6041 1.6042c-.314.314-.314.83 0 1.144L21.015 9.247c.314.314.83.314 1.144 0l1.6042-1.6041c.314-.314.314-.83 0-1.144L17.4976.2354c-.314-.314-.8276-.314-1.1416 0zM5.1173 20.734c.2848-.2848.2848-.7497 0-1.0345l-.8155-.8155c-.2848-.2848-.7497-.2848-1.0345 0l-1.6845 1.6845-.0024.0024-.4625-.4625c-.2556-.2556-.6718-.2556-.925 0-.2556.2556-.2556.6718 0 .925l2.775 2.775c.2556.2556.6718.2556.925 0 .2532-.2556.2556-.6718 0-.925l-.4625-.4625.0024-.0024zm8.4856-15.893-3.5637 3.5637c-.3164.3164-.3164.8374 0 1.1538l2.2006 2.2005c1.5554-1.1197 3.7365-.981 5.1361.4187l1.7819-1.7818c.3164-.3165.3164-.8374 0-1.1538l-4.401-4.401c-.3165-.319-.8374-.319-1.1539 0zm-2.2881 7.8455-1.2999-1.2999c-.3043-.3043-.8033-.3043-1.1076 0l-4.5836 4.586c-.3042.3043-.3042.8033 0 1.1076l2.5973 2.5973c.3043.3043.8033.3043 1.1076 0l2.9478-2.9527c-.6231-1.2877-.5112-2.8431.3384-4.0383z" fill="rgba(74,155,217,0.6)"/>
    </g>
    <text x="930" y="221" class="f" font-size="12" font-weight="600" fill="rgba(255,255,255,0.8)">OpenTelemetry</text>
    <text x="930" y="236" class="f" font-size="10" fill="rgba(74,155,217,0.55)">Collector</text>

    <!-- RIGHT: Observability Platforms -->
    <text x="1280" y="34" text-anchor="middle" class="f" font-size="11" font-weight="600" letter-spacing="1.5" fill="rgba(74,155,217,0.65)">OBSERVABILITY PLATFORMS</text>

    <path d="M1030,210 C1080,210 1095,88 1140,88" fill="none" stroke="rgba(230,82,44,0.3)" stroke-width="1.2"/>
    <path d="M1030,217 C1080,217 1095,178 1140,178" fill="none" stroke="rgba(242,153,74,0.3)" stroke-width="1.2"/>
    <path d="M1030,225 C1080,225 1095,268 1140,268" fill="none" stroke="rgba(99,44,166,0.3)" stroke-width="1.2"/>
    <path d="M1030,233 C1080,233 1095,358 1140,358" fill="none" stroke="rgba(20,150,255,0.3)" stroke-width="1.2"/>
    <path d="M1030,240 C1080,240 1095,438 1140,438" fill="none" stroke="rgba(74,155,217,0.2)" stroke-width="1.1"/>

    <circle r="3" fill="#E6522C" opacity="0.5"><animateMotion dur="2.8s" repeatCount="indefinite" path="M1030,210 C1080,210 1095,88 1140,88"/></circle>
    <circle r="3" fill="#F2994A" opacity="0.5"><animateMotion dur="3.2s" repeatCount="indefinite" path="M1030,217 C1080,217 1095,178 1140,178"/></circle>
    <circle r="3" fill="#632CA6" opacity="0.5"><animateMotion dur="3.6s" repeatCount="indefinite" path="M1030,225 C1080,225 1095,268 1140,268"/></circle>
    <circle r="3" fill="#1496FF" opacity="0.5"><animateMotion dur="3s" repeatCount="indefinite" path="M1030,233 C1080,233 1095,358 1140,358"/></circle>
    <circle r="3" fill="#4A9BD9" opacity="0.35"><animateMotion dur="3.8s" repeatCount="indefinite" path="M1030,240 C1080,240 1095,438 1140,438"/></circle>

    <!-- Platform cards -->
    <rect x="1140" y="58" width="280" height="56" rx="8" fill="rgba(230,82,44,0.06)" stroke="rgba(230,82,44,0.35)" stroke-width="1.2"/>
    <g transform="translate(1156,70) scale(1.333)">
      <path d="M12 0C5.373 0 0 5.372 0 12c0 6.627 5.373 12 12 12s12-5.373 12-12c0-6.628-5.373-12-12-12zm0 22.46c-1.885 0-3.414-1.26-3.414-2.814h6.828c0 1.553-1.528 2.813-3.414 2.813zm5.64-3.745H6.36v-2.046h11.28v2.046zm-.04-3.098H6.391c-.037-.043-.075-.086-.111-.13-1.155-1.401-1.427-2.133-1.69-2.879-.005-.025 1.4.287 2.395.511 0 0 .513.119 1.262.255-.72-.843-1.147-1.915-1.147-3.01 0-2.406 1.845-4.508 1.18-6.207.648.053 1.34 1.367 1.387 3.422.689-.951.977-2.69.977-3.755 0-1.103.727-2.385 1.454-2.429-.648 1.069.168 1.984.894 4.256.272.854.237 2.29.447 3.201.07-1.892.395-4.652 1.595-5.605-.529 1.2.079 2.702.494 3.424.671 1.164 1.078 2.047 1.078 3.716a4.642 4.642 0 01-1.11 2.996c.792-.149 1.34-.283 1.34-.283l2.573-.502s-.374 1.538-1.81 3.019z" fill="rgba(230,82,44,0.6)"/>
    </g>
    <text x="1196" y="83" class="f" font-size="14" font-weight="600" fill="rgba(255,255,255,0.85)">Prometheus</text>
    <text x="1196" y="98" class="f" font-size="10" fill="rgba(230,82,44,0.55)">PromQL queries</text>

    <rect x="1140" y="148" width="280" height="56" rx="8" fill="rgba(242,153,74,0.06)" stroke="rgba(242,153,74,0.35)" stroke-width="1.2"/>
    <g transform="translate(1158,162) scale(1.167)">
      <path d="M23.02 10.59a8.578 8.578 0 0 0-.862-3.034 8.911 8.911 0 0 0-1.789-2.445c.337-1.342-.413-2.505-.413-2.505-1.292-.08-2.113.4-2.416.62-.052-.02-.102-.044-.154-.064-.22-.089-.446-.172-.677-.247-.231-.073-.47-.14-.711-.197a9.867 9.867 0 0 0-.875-.161C14.557.753 12.94 0 12.94 0c-1.804 1.145-2.147 2.744-2.147 2.744l-.018.093c-.098.029-.2.057-.298.088-.138.042-.275.094-.413.143-.138.055-.275.107-.41.166a8.869 8.869 0 0 0-1.557.87l-.063-.029c-2.497-.955-4.716.195-4.716.195-.203 2.658.996 4.33 1.235 4.636a11.608 11.608 0 0 0-.607 2.635C1.636 12.677.953 15.014.953 15.014c1.926 2.214 4.171 2.351 4.171 2.351.003-.002.006-.002.006-.005.285.509.615.994.986 1.446.156.19.32.371.488.548-.704 2.009.099 3.68.099 3.68 2.144.08 3.553-.937 3.849-1.173a9.784 9.784 0 0 0 3.164.501h.08l.055-.003.107-.002.103-.005.003.002c1.01 1.44 2.788 1.646 2.788 1.646 1.264-1.332 1.337-2.653 1.337-2.94v-.058c0-.02-.003-.039-.003-.06.265-.187.52-.387.758-.6a7.875 7.875 0 0 0 1.415-1.7c1.43.083 2.437-.885 2.437-.885-.236-1.49-1.085-2.216-1.264-2.354l-.018-.013-.016-.013a.217.217 0 0 1-.031-.02c.008-.092.016-.18.02-.27.011-.162.016-.323.016-.48v-.253l-.005-.098-.008-.135a1.891 1.891 0 0 0-.01-.13c-.003-.042-.008-.083-.013-.125l-.016-.124-.018-.122a6.215 6.215 0 0 0-2.032-3.73 6.015 6.015 0 0 0-3.222-1.46 6.292 6.292 0 0 0-.85-.048l-.107.002h-.063l-.044.003-.104.008a4.777 4.777 0 0 0-3.335 1.695c-.332.4-.592.84-.768 1.297a4.594 4.594 0 0 0-.312 1.817l.003.091c.005.055.007.11.013.164a3.615 3.615 0 0 0 .698 1.82 3.53 3.53 0 0 0 1.827 1.282c.33.098.66.14.971.137.039 0 .078 0 .114-.002l.063-.003c.02 0 .041-.003.062-.003.034-.002.065-.007.099-.01.007 0 .018-.003.028-.003l.031-.005.06-.008a1.18 1.18 0 0 0 .112-.02c.036-.008.072-.13.109-.024a2.634 2.634 0 0 0 .914-.415c.028-.02.056-.041.085-.065a.248.248 0 0 0 .039-.35.244.244 0 0 0-.309-.06l-.078.042c-.09.044-.184.083-.283.116a2.476 2.476 0 0 1-.475.096c-.028.003-.054.006-.083.006l-.083.002c-.026 0-.054 0-.08-.002l-.102-.006h-.012l-.024.006c-.016-.003-.031-.003-.044-.006-.031-.002-.06-.007-.091-.01a2.59 2.59 0 0 1-.724-.213a2.557 2.557 0 0 1-.667-.438a2.52 2.52 0 0 1-.805-1.475a2.306 2.306 0 0 1-.029-.444l.006-.122v-.023l.002-.031c.003-.021.003-.04.005-.06a3.163 3.163 0 0 1 1.352-2.29a3.12 3.12 0 0 1 .937-.43a2.946 2.946 0 0 1 .776-.101h.06l.07.002l.045.003h.026l.07.005a4.041 4.041 0 0 1 1.635.49a3.94 3.94 0 0 1 1.602 1.662a3.77 3.77 0 0 1 .397 1.414l.005.076.003.075c.002.026.002.05.002.075 0 .024.003.052 0 .07v.065l-.002.073l-.008.174a6.195 6.195 0 0 1-.08.639a5.1 5.1 0 0 1-.267.927a5.31 5.31 0 0 1-.624 1.13a5.052 5.052 0 0 1-3.237 2.014a4.82 4.82 0 0 1-.649.066l-.039.003h-.287a6.607 6.607 0 0 1-1.716-.265a6.776 6.776 0 0 1-3.4-2.274a6.75 6.75 0 0 1-.746-1.15a6.616 6.616 0 0 1-.714-2.596l-.005-.083-.002-.02v-.056l-.003-.073v-.096l-.003-.104v-.07l.003-.163c.008-.22.026-.45.054-.678a8.707 8.707 0 0 1 .28-1.355c.128-.444.286-.872.473-1.277a7.04 7.04 0 0 1 1.456-2.1a5.925 5.925 0 0 1 .953-.763c.169-.111.343-.213.524-.306c.089-.05.182-.091.273-.135c.047-.20.093-.042.138-.062a7.177 7.177 0 0 1 .714-.267l.145-.045c.049-.015.098-.026.148-.041c.098-.029.197-.052.296-.076c.049-.013.1-.02.15-.033l.15-.032.151-.028.076-.013.075-.01.153-.024c.057-.01.114-.013.171-.023l.169-.021c.036-.003.073-.008.106-.01l.073-.008.036-.003.042-.002c.057-.003.114-.008.171-.01l.086-.006h.023l.037-.003.145-.007a7.999 7.999 0 0 1 1.708.125a7.917 7.917 0 0 1 2.048.68a8.253 8.253 0 0 1 1.672 1.09l.09.077.089.078c.06.052.114.107.171.159c.057.052.112.106.166.16c.052.055.107.107.159.164a8.671 8.671 0 0 1 1.41 1.978c.012.026.028.052.04.078l.04.078.075.156c.023.051.05.1.07.153l.065.15a8.848 8.848 0 0 1 .45 1.34a.19.19 0 0 0 .201.142.186.186 0 0 0 .172-.184c.01-.246.002-.532-.024-.856z" fill="rgba(242,153,74,0.6)"/>
    </g>
    <text x="1196" y="173" class="f" font-size="14" font-weight="600" fill="rgba(255,255,255,0.85)">Grafana</text>
    <text x="1196" y="188" class="f" font-size="10" fill="rgba(242,153,74,0.55)">Pre-built dashboards</text>

    <rect x="1140" y="238" width="280" height="56" rx="8" fill="rgba(99,44,166,0.06)" stroke="rgba(99,44,166,0.35)" stroke-width="1.2"/>
    <g transform="translate(1156,250) scale(1.333)">
      <path d="M19.57 17.04l-1.997-1.316-1.665 2.782-1.937-.567-1.706 2.604.087.82 9.274-1.71-.538-5.794zm-8.649-2.498l1.488-.204c.241.108.409.15.697.223.45.117.97.23 1.741-.16.18-.088.553-.43.704-.625l6.096-1.106.622 7.527-10.444 1.882zm11.325-2.712l-.602.115L20.488 0 .789 2.285l2.427 19.693 2.306-.334c-.184-.263-.471-.581-.96-.989-.68-.564-.44-1.522-.039-2.127.53-1.022 3.26-2.322 3.106-3.956-.056-.594-.15-1.368-.702-1.898-.02.22.017.432.017.432s-.227-.289-.34-.683c-.112-.15-.2-.199-.319-.4-.085.233-.073.503-.073.503s-.186-.437-.216-.807c-.11.166-.137.48-.137.48s-.241-.69-.186-1.062c-.11-.323-.436-.965-.343-2.424.6.421 1.924.321 2.44-.439.171-.251.288-.939-.086-2.293-.24-.868-.835-2.16-1.066-2.651l-.028.02c.122.395.374 1.223.47 1.625.293 1.218.372 1.642.234 2.204-.116.488-.397.808-1.107 1.165-.71.358-1.653-.514-1.713-.562-.69-.55-1.224-1.447-1.284-1.883-.062-.477.275-.763.445-1.153-.243.07-.514.192-.514.192s.323-.334.722-.624c.165-.109.262-.178.436-.323a9.762 9.762 0 0 0-.456.003s.42-.227.855-.392c-.318-.014-.623-.003-.623-.003s.937-.419 1.678-.727c.509-.208 1.006-.147 1.286.257.367.53.752.817 1.569.996.501-.223.653-.337 1.284-.509.554-.61.99-.688.99-.688s-.216.198-.274.51c.314-.249.66-.455.660-.455s-.134.164-.259.426l.03.043c.366-.22.797-.394.797-.394s-.123.156-.268.358c.277-.002.838.012 1.056.037 1.285.028 1.552-1.374 2.045-1.55.618-.22.894-.353 1.947.68.903.888 1.609 2.477 1.259 2.833-.294.295-.874-.115-1.516-.916a3.466 3.466 0 0 1-.716-1.562 a1.533 1.533 0 0 0-.497-.85s.23.51.23.96c0 .246.03 1.165.424 1.68-.039.076-.057.374-.1.43-.458-.554-1.443-.95-1.604-1.067.544.445 1.793 1.468 2.273 2.449.453.927.186 1.777.416 1.997.065.063.976 1.197 1.15 1.767.306.994.019 2.038-.381 2.685l-1.117.174c-.163-.045-.273-.068-.42-.153.08-.143.241-.5.243-.572l-.063-.111c-.348.492-.93.97-1.414 1.245-.633.359-1.363.304-1.838.156-1.348-.415-2.623-1.327-2.93-1.566 0 0-.01.191.048.234.34.383 1.119 1.077 1.872 1.56l-1.605.177.759 5.908c-.337.048-.39.071-.757.124-.325-1.147-.946-1.895-1.624-2.332-.599-.384-1.424-.47-2.214-.314l-.05.059a2.851 2.851 0 0 1 1.863.444c.654.413 1.181 1.481 1.375 2.124.248.822.42 1.7-.248 2.632-.476.662-1.864 1.028-2.986.237.3.481.705.876 1.25.95.809.11 1.577-.03 2.106-.574.452-.464.69-1.434.628-2.456l.714-.104.258 1.834 11.827-1.424zM15.05 6.848c-.034.075-.085.125-.007.37l.004.014.013.032.032.073c.14.287.295.558.552.696.067-.011.136-.019.207-.023.242-.01.395.028.492.08.009-.048.01-.119.005-.222-.018-.364.072-.982-.626-1.308-.264-.122-.634-.084-.757.068a.302.302 0 0 1 .058.013c.186.066.06.13.027.207m1.958 3.392c-.092-.05-.52-.03-.821.005-.574.068-1.193.267-1.328.372-.247.191-.135.523.047.66.511.382.96.638 1.432.575.29-.038.546-.497.728-.914.124-.288.124-.598-.058-.698m-5.077-2.942c.162-.154-.805-.355-1.556.156-.554.378-.571 1.187-.041 1.646.053.046.096.078.137.104a4.77 4.77 0 0 1 1.396-.412c.113-.125.243-.345.21-.745-.044-.542-.455-.456-.146-.749" fill="rgba(99,44,166,0.6)"/>
    </g>
    <text x="1196" y="263" class="f" font-size="14" font-weight="600" fill="rgba(255,255,255,0.85)">Datadog</text>
    <text x="1196" y="278" class="f" font-size="10" fill="rgba(99,44,166,0.5)">OTLP ingest</text>

    <rect x="1140" y="328" width="280" height="56" rx="8" fill="rgba(20,150,255,0.06)" stroke="rgba(20,150,255,0.35)" stroke-width="1.2"/>
    <g transform="translate(1156,340) scale(1.333)">
      <path d="M9.372 0c-.31.006-.93.09-1.521.654-.872.824-5.225 4.957-6.973 6.617-.79.754-.72 1.595-.72 1.664v.377c.067-.292.187-.5.427-.825.496-.616 1.3-.788 1.627-.822a64.238 64.238 0 016.528-.55c4.335-.136 7.197.226 7.197.226l6.085-5.794s-3.188-.6-6.82-1.027a93.4 93.4 0 00-5.64-.514c-.02 0-.09-.008-.192-.006zm13.56 2.508l-6.066 5.79s.222 2.881-.137 7.2c-.189 2.45-.584 4.866-.875 6.494-.052.326-.256 1.114-.925 1.594-.29.198-.49.295-.748.363 1.546-.51 1.091-7.047 1.091-7.047-4.335.137-7.214-.223-7.214-.223l-6.085 5.793s3.223.634 6.856 1.045c2.056.24 4.833.429 5.227.463.023 0 .045-.007.068-.012-.013.003-.022.009-.035.012.138 0 .26.015.38.015.084 0 .924.105 1.712-.648 1.748-1.663 6.084-5.81 6.94-6.634.789-.754.72-1.594.72-1.68a81.846 81.846 0 00-.206-5.654 101.75 101.75 0 00-.701-6.872zM3.855 8.306c-1.73.002-3.508.208-3.696 1.021.017 1.216.05 3.137.205 5.28.24 3.65.703 6.887.703 6.887l6.083-5.79c-.017.016-.24-2.88.12-7.2 0 0-1.684-.201-3.416-.2z" fill="rgba(20,150,255,0.6)"/>
    </g>
    <text x="1196" y="353" class="f" font-size="14" font-weight="600" fill="rgba(255,255,255,0.85)">Dynatrace</text>
    <text x="1196" y="368" class="f" font-size="10" fill="rgba(20,150,255,0.5)">OTLP metrics</text>

    <rect x="1140" y="412" width="280" height="56" rx="8" fill="rgba(74,155,217,0.04)" stroke="rgba(74,155,217,0.25)" stroke-width="1.2" stroke-dasharray="5,4"/>
    <g transform="translate(1156,424) scale(1.333)" opacity="0.45">
      <path d="M12.6974 13.1173c-1.0224 1.0224-1.0224 2.68 0 3.7024 1.0224 1.0224 2.68 1.0224 3.7024 0 1.0224-1.0223 1.0224-2.68 0-3.7024-1.0223-1.0223-2.68-1.0223-3.7024 0zm2.7677 2.7701c-.5063.5063-1.3267.5063-1.833 0s-.5063-1.3266 0-1.833c.5063-.5062 1.3267-.5062 1.833 0 .5063.504.5063 1.3267 0 1.833zM16.356.2355l-1.6041 1.6042c-.314.314-.314.83 0 1.144L21.015 9.247c.314.314.83.314 1.144 0l1.6042-1.6041c.314-.314.314-.83 0-1.144L17.4976.2354c-.314-.314-.8276-.314-1.1416 0zM5.1173 20.734c.2848-.2848.2848-.7497 0-1.0345l-.8155-.8155c-.2848-.2848-.7497-.2848-1.0345 0l-1.6845 1.6845-.0024.0024-.4625-.4625c-.2556-.2556-.6718-.2556-.925 0-.2556.2556-.2556.6718 0 .925l2.775 2.775c.2556.2556.6718.2556.925 0 .2532-.2556.2556-.6718 0-.925l-.4625-.4625.0024-.0024zm8.4856-15.893-3.5637 3.5637c-.3164.3164-.3164.8374 0 1.1538l2.2006 2.2005c1.5554-1.1197 3.7365-.981 5.1361.4187l1.7819-1.7818c.3164-.3165.3164-.8374 0-1.1538l-4.401-4.401c-.3165-.319-.8374-.319-1.1539 0zm-2.2881 7.8455-1.2999-1.2999c-.3043-.3043-.8033-.3043-1.1076 0l-4.5836 4.586c-.3042.3043-.3042.8033 0 1.1076l2.5973 2.5973c.3043.3043.8033.3043 1.1076 0l2.9478-2.9527c-.6231-1.2877-.5112-2.8431.3384-4.0383z" fill="rgba(74,155,217,0.6)"/>
    </g>
    <text x="1196" y="437" class="f" font-size="14" font-weight="600" fill="rgba(255,255,255,0.45)">Any OTEL Backend</text>
    <text x="1196" y="452" class="f" font-size="10" fill="rgba(74,155,217,0.35)">Vendor-neutral</text>

  </g>
</svg>