<svg xmlns="http://www.w3.org/2000/svg" viewBox="0 0 1440 620" width="1440" height="620">
  <style>
    .label { font-family: -apple-system, BlinkMacSystemFont, 'Segoe UI', Roboto, Helvetica, Arial, sans-serif; }
    .section-title { font-size: 12px; font-weight: 600; letter-spacing: 1.5px; text-transform: uppercase; }
    .node-title { font-size: 11.5px; font-weight: 600; }
    .node-sub { font-size: 9.5px; font-weight: 400; }
    .brand-bold { font-size: 30px; font-weight: 700; }
    .brand-light { font-size: 30px; font-weight: 400; }
    .subtitle { font-size: 10.5px; font-weight: 400; letter-spacing: 0.3px; }
    .metric-label { font-size: 8.5px; font-weight: 500; letter-spacing: 0.8px; text-transform: uppercase; }
    .mono { font-family: 'SF Mono', 'Fira Code', 'Cascadia Code', monospace; }
  </style>

  <!-- ============================================ -->
  <!-- LEFT: Terraform Repos                        -->
  <!-- ============================================ -->

  <text x="120" y="40" text-anchor="middle" class="label section-title" fill="#7B42BC" opacity="0.8">Terraform Repos</text>

  <!-- Repo 1: networking -->
  <rect x="20" y="60" width="200" height="78" rx="8" fill="none" stroke="#7B42BC" stroke-width="1.4" opacity="0.55"/>
  <rect x="20" y="60" width="200" height="24" rx="8" fill="#7B42BC" opacity="0.06"/>
  <rect x="20" y="78" width="200" height="6" fill="#7B42BC" opacity="0.04"/>
  <path d="M34 69 L34 76 L45 76 L45 69 L41 69 L40 67 L35 67 L34 69Z" fill="#7B42BC" opacity="0.45"/>
  <text x="51" y="76" class="label node-title" fill="#1E3A5F">networking</text>
  <text x="36" y="98" class="label node-sub" fill="#1E3A5F" opacity="0.6">backend "s3" { }</text>
  <text x="36" y="112" class="label node-sub" fill="#7B42BC" opacity="0.55">3 providers · 2 modules</text>
  <text x="36" y="126" class="label mono" fill="#7B42BC" font-size="8" opacity="0.35">.terraform.lock.hcl</text>

  <!-- Repo 2: eks-cluster -->
  <rect x="20" y="156" width="200" height="78" rx="8" fill="none" stroke="#7B42BC" stroke-width="1.4" opacity="0.55"/>
  <rect x="20" y="156" width="200" height="24" rx="8" fill="#7B42BC" opacity="0.06"/>
  <rect x="20" y="174" width="200" height="6" fill="#7B42BC" opacity="0.04"/>
  <path d="M34 165 L34 172 L45 172 L45 165 L41 165 L40 163 L35 163 L34 165Z" fill="#7B42BC" opacity="0.45"/>
  <text x="51" y="172" class="label node-title" fill="#1E3A5F">eks-cluster</text>
  <text x="36" y="194" class="label node-sub" fill="#1E3A5F" opacity="0.6">cloud { organization }</text>
  <text x="36" y="208" class="label node-sub" fill="#7B42BC" opacity="0.55">5 providers · 4 modules</text>
  <text x="36" y="222" class="label mono" fill="#7B42BC" font-size="8" opacity="0.35">.terraform.lock.hcl</text>

  <!-- Repo 3: data-platform -->
  <rect x="20" y="252" width="200" height="78" rx="8" fill="none" stroke="#7B42BC" stroke-width="1.4" opacity="0.55"/>
  <rect x="20" y="252" width="200" height="24" rx="8" fill="#7B42BC" opacity="0.06"/>
  <rect x="20" y="270" width="200" height="6" fill="#7B42BC" opacity="0.04"/>
  <path d="M34 261 L34 268 L45 268 L45 261 L41 261 L40 259 L35 259 L34 261Z" fill="#7B42BC" opacity="0.45"/>
  <text x="51" y="268" class="label node-title" fill="#1E3A5F">data-platform</text>
  <text x="36" y="290" class="label node-sub" fill="#1E3A5F" opacity="0.6">backend "s3" { }</text>
  <text x="36" y="304" class="label node-sub" fill="#7B42BC" opacity="0.55">4 providers · 6 modules</text>
  <text x="36" y="318" class="label mono" fill="#7B42BC" font-size="8" opacity="0.35">.terraform.lock.hcl</text>

  <!-- Repo 4: iam-security -->
  <rect x="20" y="348" width="200" height="78" rx="8" fill="none" stroke="#7B42BC" stroke-width="1.4" opacity="0.55"/>
  <rect x="20" y="348" width="200" height="24" rx="8" fill="#7B42BC" opacity="0.06"/>
  <rect x="20" y="366" width="200" height="6" fill="#7B42BC" opacity="0.04"/>
  <path d="M34 357 L34 364 L45 364 L45 357 L41 357 L40 355 L35 355 L34 357Z" fill="#7B42BC" opacity="0.45"/>
  <text x="51" y="364" class="label node-title" fill="#1E3A5F">iam-security</text>
  <text x="36" y="386" class="label node-sub" fill="#1E3A5F" opacity="0.6">cloud { organization }</text>
  <text x="36" y="400" class="label node-sub" fill="#7B42BC" opacity="0.55">2 providers · 1 module</text>
  <text x="36" y="414" class="label mono" fill="#7B42BC" font-size="8" opacity="0.35">.terraform.lock.hcl</text>

  <!-- Repo 5: monitoring -->
  <rect x="20" y="444" width="200" height="78" rx="8" fill="none" stroke="#7B42BC" stroke-width="1.4" opacity="0.35" stroke-dasharray="4,3"/>
  <rect x="20" y="444" width="200" height="24" rx="8" fill="#7B42BC" opacity="0.03"/>
  <path d="M34 453 L34 460 L45 460 L45 453 L41 453 L40 451 L35 451 L34 453Z" fill="#7B42BC" opacity="0.25"/>
  <text x="51" y="460" class="label node-title" fill="#1E3A5F" opacity="0.4">monitoring</text>
  <text x="36" y="482" class="label node-sub" fill="#1E3A5F" opacity="0.3">backend "s3" { }</text>
  <text x="36" y="496" class="label node-sub" fill="#7B42BC" opacity="0.3">2 providers · 3 modules</text>

  <text x="120" y="555" text-anchor="middle" class="label" fill="#7B42BC" font-size="10" opacity="0.4">+ more repos</text>

  <!-- ============================================ -->
  <!-- CURVED FLOWS: Repos → tfwatch               -->
  <!-- ============================================ -->

  <!-- Smooth bezier curves from each repo to tfwatch center -->
  <path d="M220,99 C310,99 370,220 460,245" fill="none" stroke="#7B42BC" stroke-width="1.3" opacity="0.2"/>
  <path d="M220,195 C320,195 380,235 460,255" fill="none" stroke="#7B42BC" stroke-width="1.3" opacity="0.2"/>
  <path d="M220,291 C320,291 380,275 460,265" fill="none" stroke="#7B42BC" stroke-width="1.3" opacity="0.2"/>
  <path d="M220,387 C310,387 370,290 460,275" fill="none" stroke="#7B42BC" stroke-width="1.3" opacity="0.2"/>
  <path d="M220,483 C310,483 370,310 460,285" fill="none" stroke="#7B42BC" stroke-width="1.1" opacity="0.12"/>

  <!-- Animated dots on curves (subtle motion hint via opacity) -->
  <circle r="3" fill="#7B42BC" opacity="0.3">
    <animateMotion dur="4s" repeatCount="indefinite" path="M220,99 C310,99 370,220 460,245"/>
  </circle>
  <circle r="3" fill="#7B42BC" opacity="0.3">
    <animateMotion dur="4.5s" repeatCount="indefinite" path="M220,195 C320,195 380,235 460,255"/>
  </circle>
  <circle r="3" fill="#7B42BC" opacity="0.3">
    <animateMotion dur="5s" repeatCount="indefinite" path="M220,291 C320,291 380,275 460,265"/>
  </circle>
  <circle r="3" fill="#7B42BC" opacity="0.3">
    <animateMotion dur="4.2s" repeatCount="indefinite" path="M220,387 C310,387 370,290 460,275"/>
  </circle>

  <!-- Flow label on curve -->
  <text x="340" y="200" text-anchor="middle" class="label metric-label" fill="#7B42BC" opacity="0.45">parse lock files</text>

  <!-- ============================================ -->
  <!-- CENTER: tfwatch Core                         -->
  <!-- ============================================ -->

  <rect x="460" y="200" width="260" height="145" rx="12" fill="#1E3A5F" opacity="0.035"/>
  <rect x="460" y="200" width="260" height="145" rx="12" fill="none" stroke="#1E3A5F" stroke-width="1.8" opacity="0.45"/>

  <!-- Logo mark -->
  <circle cx="516" cy="272" r="32" fill="none" stroke="#2C5F8A" stroke-width="2.2" opacity="0.5"/>
  <!-- Tower -->
  <path d="M510 258 L507 290 L525 290 L522 258 Z" fill="#4A90C4" opacity="0.6"/>
  <polygon points="516,246 507,258 525,258" fill="#1E3A5F" opacity="0.6"/>
  <!-- Signals -->
  <path d="M498 260 Q492 270 498 280" fill="none" stroke="#4A9BD9" stroke-width="1.8" stroke-linecap="round" opacity="0.4"/>
  <path d="M490 255 Q482 270 490 285" fill="none" stroke="#4A9BD9" stroke-width="1.4" stroke-linecap="round" opacity="0.25"/>
  <path d="M534 260 Q540 270 534 280" fill="none" stroke="#4A9BD9" stroke-width="1.8" stroke-linecap="round" opacity="0.4"/>
  <path d="M542 255 Q550 270 542 285" fill="none" stroke="#4A9BD9" stroke-width="1.4" stroke-linecap="round" opacity="0.25"/>
  <!-- Magnifying glass -->
  <circle cx="524" cy="280" r="7" fill="none" stroke="#6B8DA8" stroke-width="1.4" opacity="0.5"/>
  <line x1="530" y1="286" x2="536" y2="293" stroke="#6B8DA8" stroke-width="1.4" stroke-linecap="round" opacity="0.5"/>

  <!-- Brand -->
  <text x="558" y="262" class="label brand-bold" fill="#1E3A5F">tf</text>
  <text x="585" y="262" class="label brand-light" fill="#4A9BD9">watch</text>
  <text x="558" y="280" class="label subtitle" fill="#1E3A5F" opacity="0.45">Dependency Intelligence</text>

  <!-- Metric badge -->
  <rect x="480" y="305" width="220" height="24" rx="5" fill="#4A9BD9" opacity="0.07"/>
  <text x="590" y="321" text-anchor="middle" class="label mono" fill="#4A9BD9" font-size="9.5" font-weight="500">terraform_dependency_version</text>

  <!-- Metric labels below -->
  <rect x="460" y="360" width="260" height="108" rx="8" fill="#1E3A5F" opacity="0.02"/>
  <rect x="460" y="360" width="260" height="108" rx="8" fill="none" stroke="#1E3A5F" stroke-width="0.8" opacity="0.12"/>
  <text x="590" y="378" text-anchor="middle" class="label metric-label" fill="#1E3A5F" opacity="0.4">Metric Attributes</text>

  <text x="475" y="396" class="label mono" fill="#4A9BD9" font-size="8.5" opacity="0.5">backend_type</text>
  <text x="475" y="410" class="label mono" fill="#4A9BD9" font-size="8.5" opacity="0.5">backend_workspace</text>
  <text x="475" y="424" class="label mono" fill="#4A9BD9" font-size="8.5" opacity="0.5">dependency_name</text>
  <text x="475" y="438" class="label mono" fill="#4A9BD9" font-size="8.5" opacity="0.5">dependency_version</text>
  <text x="475" y="452" class="label mono" fill="#4A9BD9" font-size="8.5" opacity="0.5">dependency_source</text>

  <text x="610" y="396" class="label mono" fill="#7B42BC" font-size="8.5" opacity="0.5">backend_org</text>
  <text x="610" y="410" class="label mono" fill="#7B42BC" font-size="8.5" opacity="0.5">phase</text>
  <text x="610" y="424" class="label mono" fill="#7B42BC" font-size="8.5" opacity="0.5">type</text>
  <text x="610" y="438" class="label mono" fill="#7B42BC" font-size="8.5" opacity="0.5">terraform_version</text>

  <!-- ============================================ -->
  <!-- CURVED FLOW: tfwatch → OTEL Collector        -->
  <!-- ============================================ -->

  <path d="M720,270 C760,270 780,270 830,270" fill="none" stroke="#4A9BD9" stroke-width="1.8" opacity="0.4"/>
  <!-- Arrow tip -->
  <polygon points="830,270 823,265 823,275" fill="#4A9BD9" opacity="0.4"/>

  <!-- Animated dot -->
  <circle r="3.5" fill="#4A9BD9" opacity="0.4">
    <animateMotion dur="2s" repeatCount="indefinite" path="M720,270 C760,270 780,270 830,270"/>
  </circle>

  <!-- Protocol label -->
  <rect x="745" y="248" width="60" height="15" rx="3" fill="#4A9BD9" opacity="0.08"/>
  <text x="775" y="259" text-anchor="middle" class="label metric-label" fill="#4A9BD9" opacity="0.6">OTLP gRPC</text>

  <!-- ============================================ -->
  <!-- OTEL Collector                               -->
  <!-- ============================================ -->

  <rect x="830" y="235" width="155" height="70" rx="10" fill="none" stroke="#4A9BD9" stroke-width="1.4" opacity="0.45"/>
  <rect x="830" y="235" width="155" height="70" rx="10" fill="#4A9BD9" opacity="0.03"/>

  <!-- OTEL icon -->
  <circle cx="864" cy="270" r="14" fill="none" stroke="#4A9BD9" stroke-width="1.4" opacity="0.55"/>
  <circle cx="864" cy="270" r="4.5" fill="#4A9BD9" opacity="0.3"/>
  <line x1="864" y1="256" x2="864" y2="260" stroke="#4A9BD9" stroke-width="1.2" opacity="0.4"/>
  <line x1="864" y1="280" x2="864" y2="284" stroke="#4A9BD9" stroke-width="1.2" opacity="0.4"/>
  <line x1="850" y1="270" x2="854" y2="270" stroke="#4A9BD9" stroke-width="1.2" opacity="0.4"/>
  <line x1="874" y1="270" x2="878" y2="270" stroke="#4A9BD9" stroke-width="1.2" opacity="0.4"/>

  <text x="886" y="266" class="label node-title" fill="#1E3A5F" font-size="11.5">OpenTelemetry</text>
  <text x="886" y="280" class="label node-sub" fill="#4A9BD9" font-size="10">Collector</text>

  <!-- ============================================ -->
  <!-- RIGHT: Observability Platforms               -->
  <!-- ============================================ -->

  <text x="1250" y="40" text-anchor="middle" class="label section-title" fill="#4A9BD9" opacity="0.8">Observability Platforms</text>

  <!-- Smooth bezier fan-out curves from collector to platforms -->
  <path d="M985,255 C1040,255 1060,105 1120,105" fill="none" stroke="#E6522C" stroke-width="1.1" opacity="0.2"/>
  <path d="M985,260 C1040,260 1060,210 1120,210" fill="none" stroke="#F2994A" stroke-width="1.1" opacity="0.2"/>
  <path d="M985,270 C1040,270 1060,310 1120,310" fill="none" stroke="#632CA6" stroke-width="1.1" opacity="0.2"/>
  <path d="M985,280 C1040,280 1060,410 1120,410" fill="none" stroke="#1496FF" stroke-width="1.1" opacity="0.2"/>
  <path d="M985,285 C1040,285 1060,505 1120,505" fill="none" stroke="#4A9BD9" stroke-width="1" opacity="0.15"/>

  <!-- Animated dots on fan-out -->
  <circle r="3" fill="#E6522C" opacity="0.35">
    <animateMotion dur="3s" repeatCount="indefinite" path="M985,255 C1040,255 1060,105 1120,105"/>
  </circle>
  <circle r="3" fill="#F2994A" opacity="0.35">
    <animateMotion dur="3.4s" repeatCount="indefinite" path="M985,260 C1040,260 1060,210 1120,210"/>
  </circle>
  <circle r="3" fill="#632CA6" opacity="0.35">
    <animateMotion dur="3.8s" repeatCount="indefinite" path="M985,270 C1040,270 1060,310 1120,310"/>
  </circle>
  <circle r="3" fill="#1496FF" opacity="0.35">
    <animateMotion dur="3.2s" repeatCount="indefinite" path="M985,280 C1040,280 1060,410 1120,410"/>
  </circle>
  <circle r="3" fill="#4A9BD9" opacity="0.25">
    <animateMotion dur="4s" repeatCount="indefinite" path="M985,285 C1040,285 1060,505 1120,505"/>
  </circle>

  <!-- Platform 1: Prometheus -->
  <rect x="1120" y="70" width="300" height="68" rx="8" fill="none" stroke="#E6522C" stroke-width="1.2" opacity="0.4"/>
  <rect x="1120" y="70" width="300" height="68" rx="8" fill="#E6522C" opacity="0.025"/>
  <circle cx="1152" cy="104" r="16" fill="none" stroke="#E6522C" stroke-width="1.4" opacity="0.45"/>
  <path d="M1152 90 L1152 97 M1145 94 L1152 101 L1159 94" fill="none" stroke="#E6522C" stroke-width="1.4" stroke-linecap="round" opacity="0.4"/>
  <text x="1176" y="100" class="label node-title" fill="#1E3A5F" font-size="13">Prometheus</text>
  <text x="1176" y="116" class="label node-sub" fill="#E6522C" font-size="9.5" opacity="0.6">PromQL queries · terraform_dependency_version</text>

  <!-- Platform 2: Grafana -->
  <rect x="1120" y="175" width="300" height="68" rx="8" fill="none" stroke="#F2994A" stroke-width="1.2" opacity="0.4"/>
  <rect x="1120" y="175" width="300" height="68" rx="8" fill="#F2994A" opacity="0.025"/>
  <rect x="1139" y="213" width="5" height="14" rx="1.5" fill="#F2994A" opacity="0.4"/>
  <rect x="1147" y="206" width="5" height="21" rx="1.5" fill="#F2994A" opacity="0.5"/>
  <rect x="1155" y="209" width="5" height="18" rx="1.5" fill="#F2994A" opacity="0.4"/>
  <rect x="1163" y="201" width="5" height="26" rx="1.5" fill="#F2994A" opacity="0.5"/>
  <text x="1176" y="205" class="label node-title" fill="#1E3A5F" font-size="13">Grafana</text>
  <text x="1176" y="221" class="label node-sub" fill="#F2994A" font-size="9.5" opacity="0.6">Pre-built dashboards · Dependency Explorer</text>

  <!-- Platform 3: Datadog -->
  <rect x="1120" y="278" width="300" height="68" rx="8" fill="none" stroke="#632CA6" stroke-width="1.2" opacity="0.4"/>
  <rect x="1120" y="278" width="300" height="68" rx="8" fill="#632CA6" opacity="0.025"/>
  <circle cx="1152" cy="312" r="16" fill="none" stroke="#632CA6" stroke-width="1.4" opacity="0.4"/>
  <text x="1152" y="317" text-anchor="middle" class="label" fill="#632CA6" font-size="15" font-weight="700" opacity="0.4">D</text>
  <text x="1176" y="308" class="label node-title" fill="#1E3A5F" font-size="13">Datadog</text>
  <text x="1176" y="324" class="label node-sub" fill="#632CA6" font-size="9.5" opacity="0.6">OTLP ingest · Dependency monitors &amp; alerts</text>

  <!-- Platform 4: Dynatrace -->
  <rect x="1120" y="380" width="300" height="68" rx="8" fill="none" stroke="#1496FF" stroke-width="1.2" opacity="0.4"/>
  <rect x="1120" y="380" width="300" height="68" rx="8" fill="#1496FF" opacity="0.025"/>
  <circle cx="1152" cy="414" r="16" fill="none" stroke="#1496FF" stroke-width="1.4" opacity="0.4"/>
  <path d="M1143 414 L1152 405 L1161 414 L1152 423 Z" fill="none" stroke="#1496FF" stroke-width="1.2" opacity="0.4"/>
  <text x="1176" y="410" class="label node-title" fill="#1E3A5F" font-size="13">Dynatrace</text>
  <text x="1176" y="426" class="label node-sub" fill="#1496FF" font-size="9.5" opacity="0.6">OTLP metrics · Dependency analytics</text>

  <!-- Platform 5: Any OTEL Backend -->
  <rect x="1120" y="478" width="300" height="68" rx="8" fill="none" stroke="#4A9BD9" stroke-width="1.2" opacity="0.3" stroke-dasharray="5,4"/>
  <rect x="1120" y="478" width="300" height="68" rx="8" fill="#4A9BD9" opacity="0.02"/>
  <circle cx="1152" cy="512" r="16" fill="none" stroke="#4A9BD9" stroke-width="1.4" opacity="0.3"/>
  <circle cx="1152" cy="512" r="5.5" fill="#4A9BD9" opacity="0.15"/>
  <text x="1176" y="508" class="label node-title" fill="#1E3A5F" font-size="13" opacity="0.6">Any OTEL Backend</text>
  <text x="1176" y="524" class="label node-sub" fill="#4A9BD9" font-size="9.5" opacity="0.45">OTLP-compatible · Vendor-neutral</text>

  <!-- ============================================ -->
  <!-- Bottom tagline                               -->
  <!-- ============================================ -->

  <text x="720" y="598" text-anchor="middle" class="label" fill="#1E3A5F" font-size="11" opacity="0.3" letter-spacing="0.5px">Terraform dependency visibility across all repos via OpenTelemetry</text>

</svg>
