<svg xmlns="http://www.w3.org/2000/svg" viewBox="0 0 1440 440" width="1440" height="440">
  <defs>
    <linearGradient id="towerGrad" x1="0" y1="0" x2="0" y2="1">
      <stop offset="0%" stop-color="#2563EB"/>
      <stop offset="100%" stop-color="#1D4ED8"/>
    </linearGradient>
    <linearGradient id="circleGrad" x1="0" y1="0" x2="1" y2="1">
      <stop offset="0%" stop-color="#1E3A5F"/>
      <stop offset="100%" stop-color="#2C5F8A"/>
    </linearGradient>
    <linearGradient id="roofGrad" x1="0" y1="0" x2="0" y2="1">
      <stop offset="0%" stop-color="#1E3A5F"/>
      <stop offset="100%" stop-color="#2C5F8A"/>
    </linearGradient>
    <linearGradient id="glassGrad" x1="0" y1="0" x2="1" y2="1">
      <stop offset="0%" stop-color="#4A7FA0"/>
      <stop offset="100%" stop-color="#2C5F8A"/>
    </linearGradient>
    <symbol id="tfwatchMark" viewBox="0 0 240 240">
      <circle cx="120" cy="120" r="100" fill="none" stroke="url(#circleGrad)" stroke-width="8"/>
      <path d="M105 78 L95 185 L145 185 L135 78 Z" fill="url(#towerGrad)" opacity="0.85"/>
      <path d="M113 78 L106 185 L134 185 L127 78 Z" fill="#3B82F6" opacity="0.5"/>
      <line x1="100" y1="115" x2="140" y2="115" stroke="#1E3A5F" stroke-width="2.5" opacity="0.6"/>
      <line x1="97" y1="145" x2="143" y2="145" stroke="#1E3A5F" stroke-width="2.5" opacity="0.6"/>
      <line x1="102" y1="115" x2="140" y2="145" stroke="#1E3A5F" stroke-width="1.8" opacity="0.4"/>
      <line x1="138" y1="115" x2="100" y2="145" stroke="#1E3A5F" stroke-width="1.8" opacity="0.4"/>
      <polygon points="120,50 100,78 140,78" fill="url(#roofGrad)"/>
      <polygon points="120,50 120,78 140,78" fill="#3A7CB8" opacity="0.3"/>
      <path d="M82 85 Q70 100 82 115" fill="none" stroke="#2563EB" stroke-width="3.5" stroke-linecap="round" opacity="0.8"/>
      <path d="M70 78 Q54 100 70 122" fill="none" stroke="#2563EB" stroke-width="3" stroke-linecap="round" opacity="0.6"/>
      <path d="M58 72 Q38 100 58 128" fill="none" stroke="#2563EB" stroke-width="2.5" stroke-linecap="round" opacity="0.4"/>
      <path d="M158 85 Q170 100 158 115" fill="none" stroke="#2563EB" stroke-width="3.5" stroke-linecap="round" opacity="0.8"/>
      <path d="M170 78 Q186 100 170 122" fill="none" stroke="#2563EB" stroke-width="3" stroke-linecap="round" opacity="0.6"/>
      <path d="M182 72 Q202 100 182 128" fill="none" stroke="#2563EB" stroke-width="2.5" stroke-linecap="round" opacity="0.4"/>
      <circle cx="130" cy="140" r="22" fill="none" stroke="url(#glassGrad)" stroke-width="5"/>
      <circle cx="130" cy="140" r="22" fill="#DBEAFE" opacity="0.4"/>
      <ellipse cx="124" cy="134" rx="8" ry="6" fill="white" opacity="0.4"/>
      <line x1="147" y1="157" x2="165" y2="178" stroke="url(#glassGrad)" stroke-width="6" stroke-linecap="round"/>
      <circle cx="130" cy="140" r="5" fill="#2563EB" opacity="0.5"/>
    </symbol>
    <!-- Terraform logo as reusable symbol -->
    <symbol id="tfLogo" viewBox="0 0 24 28">
      <path d="M1.44 0v7.575l6.561 3.79V3.787Z" fill="#7C3AED"/>
      <path d="M8.72 4.23v7.575l6.561 3.787V8.018Z" fill="#7C3AED"/>
      <path d="M16.56 0.44v7.575l6.561 3.79V4.227Z" fill="#7C3AED"/>
      <path d="M8.72 16.577v7.575l6.561 3.787V20.365Z" fill="#7C3AED"/>
    </symbol>
  </defs>

  <style>
    .f { font-family: -apple-system, BlinkMacSystemFont, 'Segoe UI', Roboto, Helvetica, Arial, sans-serif; }
    .mono { font-family: 'SF Mono', 'Fira Code', 'Cascadia Code', Consolas, monospace; }
  </style>

  <!-- ============================================ -->
  <!-- LEFT: Terraform Repos                        -->
  <!-- ============================================ -->

  <text x="142" y="30" text-anchor="middle" class="f" font-size="11" font-weight="600" letter-spacing="1.5" fill="#6D28D9">TERRAFORM REPOS</text>

  <!-- Repo 1 -->
  <rect x="24" y="48" width="236" height="54" rx="10" fill="rgba(124,58,237,0.06)" stroke="rgba(124,58,237,0.4)" stroke-width="1.6"/>
  <use href="#tfLogo" x="36" y="58" width="20" height="24"/>
  <text x="66" y="73" class="f" font-size="13" font-weight="700" fill="#4C1D95">networking</text>
  <text x="66" y="90" class="mono" font-size="9" fill="#6D28D9">s3 · 3 providers · 2 modules</text>

  <!-- Repo 2 -->
  <rect x="24" y="114" width="236" height="54" rx="10" fill="rgba(124,58,237,0.06)" stroke="rgba(124,58,237,0.4)" stroke-width="1.6"/>
  <use href="#tfLogo" x="36" y="124" width="20" height="24"/>
  <text x="66" y="139" class="f" font-size="13" font-weight="700" fill="#4C1D95">eks-cluster</text>
  <text x="66" y="156" class="mono" font-size="9" fill="#6D28D9">cloud · 5 providers · 4 modules</text>

  <!-- Repo 3 -->
  <rect x="24" y="180" width="236" height="54" rx="10" fill="rgba(124,58,237,0.06)" stroke="rgba(124,58,237,0.4)" stroke-width="1.6"/>
  <use href="#tfLogo" x="36" y="190" width="20" height="24"/>
  <text x="66" y="205" class="f" font-size="13" font-weight="700" fill="#4C1D95">data-platform</text>
  <text x="66" y="222" class="mono" font-size="9" fill="#6D28D9">s3 · 4 providers · 6 modules</text>

  <!-- Repo 4 -->
  <rect x="24" y="246" width="236" height="54" rx="10" fill="rgba(124,58,237,0.06)" stroke="rgba(124,58,237,0.4)" stroke-width="1.6"/>
  <use href="#tfLogo" x="36" y="256" width="20" height="24"/>
  <text x="66" y="271" class="f" font-size="13" font-weight="700" fill="#4C1D95">iam-security</text>
  <text x="66" y="288" class="mono" font-size="9" fill="#6D28D9">cloud · 2 providers · 1 module</text>

  <!-- Repo 5 (faded) -->
  <rect x="24" y="312" width="236" height="54" rx="10" fill="rgba(124,58,237,0.03)" stroke="rgba(124,58,237,0.2)" stroke-width="1.2" stroke-dasharray="5,4"/>
  <use href="#tfLogo" x="36" y="322" width="20" height="24" opacity="0.4"/>
  <text x="66" y="337" class="f" font-size="13" font-weight="700" fill="rgba(76,29,149,0.4)">monitoring</text>
  <text x="66" y="354" class="mono" font-size="9" fill="rgba(109,40,217,0.4)">s3 · 2 providers · 3 modules</text>

  <text x="142" y="392" text-anchor="middle" class="f" font-size="10" fill="rgba(109,40,217,0.4)">+ more repos</text>

  <!-- ============================================ -->
  <!-- CURVES: Repos → tfwatch                      -->
  <!-- ============================================ -->

  <path d="M260,75 C370,75 410,180 490,195" fill="none" stroke="rgba(124,58,237,0.3)" stroke-width="1.6"/>
  <path d="M260,141 C370,141 410,200 490,210" fill="none" stroke="rgba(124,58,237,0.3)" stroke-width="1.6"/>
  <path d="M260,207 C370,207 410,215 490,220" fill="none" stroke="rgba(124,58,237,0.3)" stroke-width="1.6"/>
  <path d="M260,273 C370,273 410,230 490,230" fill="none" stroke="rgba(124,58,237,0.3)" stroke-width="1.6"/>
  <path d="M260,339 C370,339 410,245 490,240" fill="none" stroke="rgba(124,58,237,0.18)" stroke-width="1.3"/>

  <circle r="3.5" fill="#7C3AED" opacity="0.7"><animateMotion dur="3.5s" repeatCount="indefinite" path="M260,75 C370,75 410,180 490,195"/></circle>
  <circle r="3.5" fill="#7C3AED" opacity="0.7"><animateMotion dur="4s" repeatCount="indefinite" path="M260,141 C370,141 410,200 490,210"/></circle>
  <circle r="3.5" fill="#7C3AED" opacity="0.7"><animateMotion dur="4.5s" repeatCount="indefinite" path="M260,207 C370,207 410,215 490,220"/></circle>
  <circle r="3.5" fill="#7C3AED" opacity="0.7"><animateMotion dur="3.8s" repeatCount="indefinite" path="M260,273 C370,273 410,230 490,230"/></circle>

  <!-- ============================================ -->
  <!-- CENTER: tfwatch                              -->
  <!-- ============================================ -->

  <rect x="490" y="148" width="280" height="140" rx="14" fill="rgba(37,99,235,0.06)" stroke="rgba(37,99,235,0.3)" stroke-width="2"/>

  <use href="#tfwatchMark" x="510" y="168" width="96" height="96" preserveAspectRatio="xMidYMid meet"/>

  <text x="618" y="212" class="f" font-size="36" font-weight="700" fill="#1E3A5F" letter-spacing="-1">tf</text>
  <text x="652" y="212" class="f" font-size="36" font-weight="400" fill="#2563EB" letter-spacing="-1">watch</text>
  <text x="618" y="234" class="f" font-size="11.5" fill="#64748B" letter-spacing="0.3">Dependency Intelligence</text>

  <rect x="516" y="260" width="228" height="20" rx="4" fill="rgba(37,99,235,0.08)"/>
  <text x="630" y="274" text-anchor="middle" class="mono" font-size="10" fill="#2563EB">terraform_dependency_version</text>

  <!-- ============================================ -->
  <!-- CURVE: tfwatch → Collector                   -->
  <!-- ============================================ -->

  <path d="M770,218 C820,218 840,218 880,218" fill="none" stroke="rgba(37,99,235,0.5)" stroke-width="2"/>
  <polygon points="880,218 872,213 872,223" fill="rgba(37,99,235,0.5)"/>
  <circle r="3.5" fill="#2563EB" opacity="0.7"><animateMotion dur="2s" repeatCount="indefinite" path="M770,218 C820,218 840,218 880,218"/></circle>
  <rect x="794" y="200" width="52" height="14" rx="3" fill="rgba(37,99,235,0.08)"/>
  <text x="820" y="210" text-anchor="middle" class="f" font-size="8" font-weight="500" fill="#2563EB" letter-spacing="0.8">OTLP gRPC</text>

  <!-- ============================================ -->
  <!-- OTEL Collector                               -->
  <!-- ============================================ -->

  <rect x="880" y="186" width="160" height="64" rx="10" fill="rgba(37,99,235,0.06)" stroke="rgba(37,99,235,0.35)" stroke-width="1.5"/>
  <g transform="translate(898,202) scale(1.333)">
    <path d="M12.6974 13.1173c-1.0224 1.0224-1.0224 2.68 0 3.7024 1.0224 1.0224 2.68 1.0224 3.7024 0 1.0224-1.0223 1.0224-2.68 0-3.7024-1.0223-1.0223-2.68-1.0223-3.7024 0zm2.7677 2.7701c-.5063.5063-1.3267.5063-1.833 0s-.5063-1.3266 0-1.833c.5063-.5062 1.3267-.5062 1.833 0 .5063.504.5063 1.3267 0 1.833zM16.356.2355l-1.6041 1.6042c-.314.314-.314.83 0 1.144L21.015 9.247c.314.314.83.314 1.144 0l1.6042-1.6041c.314-.314.314-.83 0-1.144L17.4976.2354c-.314-.314-.8276-.314-1.1416 0zM5.1173 20.734c.2848-.2848.2848-.7497 0-1.0345l-.8155-.8155c-.2848-.2848-.7497-.2848-1.0345 0l-1.6845 1.6845-.0024.0024-.4625-.4625c-.2556-.2556-.6718-.2556-.925 0-.2556.2556-.2556.6718 0 .925l2.775 2.775c.2556.2556.6718.2556.925 0 .2532-.2556.2556-.6718 0-.925l-.4625-.4625.0024-.0024zm8.4856-15.893-3.5637 3.5637c-.3164.3164-.3164.8374 0 1.1538l2.2006 2.2005c1.5554-1.1197 3.7365-.981 5.1361.4187l1.7819-1.7818c.3164-.3165.3164-.8374 0-1.1538l-4.401-4.401c-.3165-.319-.8374-.319-1.1539 0zm-2.2881 7.8455-1.2999-1.2999c-.3043-.3043-.8033-.3043-1.1076 0l-4.5836 4.586c-.3042.3043-.3042.8033 0 1.1076l2.5973 2.5973c.3043.3043.8033.3043 1.1076 0l2.9478-2.9527c-.6231-1.2877-.5112-2.8431.3384-4.0383z" fill="#2563EB"/>
  </g>
  <text x="940" y="214" class="f" font-size="12" font-weight="600" fill="#1E293B">OpenTelemetry</text>
  <text x="940" y="229" class="f" font-size="10" fill="#2563EB">Collector</text>

  <!-- ============================================ -->
  <!-- RIGHT: Observability Platforms (4 cards)     -->
  <!-- ============================================ -->

  <text x="1280" y="30" text-anchor="middle" class="f" font-size="11" font-weight="600" letter-spacing="1.5" fill="#1D4ED8">OBSERVABILITY PLATFORMS</text>

  <!-- Fan-out curves (4 now) -->
  <path d="M1040,204 C1090,204 1105,88 1150,88" fill="none" stroke="rgba(234,88,12,0.4)" stroke-width="1.5"/>
  <path d="M1040,212 C1090,212 1105,198 1150,198" fill="none" stroke="rgba(124,58,237,0.4)" stroke-width="1.5"/>
  <path d="M1040,224 C1090,224 1105,308 1150,308" fill="none" stroke="rgba(14,116,210,0.4)" stroke-width="1.5"/>
  <path d="M1040,232 C1090,232 1105,406 1150,406" fill="none" stroke="rgba(37,99,235,0.25)" stroke-width="1.3"/>

  <circle r="3.5" fill="#EA580C" opacity="0.7"><animateMotion dur="2.8s" repeatCount="indefinite" path="M1040,204 C1090,204 1105,88 1150,88"/></circle>
  <circle r="3.5" fill="#7C3AED" opacity="0.7"><animateMotion dur="3.2s" repeatCount="indefinite" path="M1040,212 C1090,212 1105,198 1150,198"/></circle>
  <circle r="3.5" fill="#0E74D2" opacity="0.7"><animateMotion dur="3.6s" repeatCount="indefinite" path="M1040,224 C1090,224 1105,308 1150,308"/></circle>
  <circle r="3" fill="#2563EB" opacity="0.45"><animateMotion dur="3.8s" repeatCount="indefinite" path="M1040,232 C1090,232 1105,406 1150,406"/></circle>

  <!-- Platform 1: Prometheus + Grafana (combined) -->
  <rect x="1150" y="56" width="280" height="62" rx="10" fill="rgba(234,88,12,0.06)" stroke="rgba(234,88,12,0.45)" stroke-width="1.5"/>
  <!-- Prometheus icon (small) -->
  <g transform="translate(1164,68) scale(1.1)">
    <path d="M12 0C5.373 0 0 5.372 0 12c0 6.627 5.373 12 12 12s12-5.373 12-12c0-6.628-5.373-12-12-12zm0 22.46c-1.885 0-3.414-1.26-3.414-2.814h6.828c0 1.553-1.528 2.813-3.414 2.813zm5.64-3.745H6.36v-2.046h11.28v2.046zm-.04-3.098H6.391c-.037-.043-.075-.086-.111-.13-1.155-1.401-1.427-2.133-1.69-2.879-.005-.025 1.4.287 2.395.511 0 0 .513.119 1.262.255-.72-.843-1.147-1.915-1.147-3.01 0-2.406 1.845-4.508 1.18-6.207.648.053 1.34 1.367 1.387 3.422.689-.951.977-2.69.977-3.755 0-1.103.727-2.385 1.454-2.429-.648 1.069.168 1.984.894 4.256.272.854.237 2.29.447 3.201.07-1.892.395-4.652 1.595-5.605-.529 1.2.079 2.702.494 3.424.671 1.164 1.078 2.047 1.078 3.716a4.642 4.642 0 01-1.11 2.996c.792-.149 1.34-.283 1.34-.283l2.573-.502s-.374 1.538-1.81 3.019z" fill="#E6522C"/>
  </g>
  <!-- Grafana icon (small, offset right) -->
  <g transform="translate(1192,68) scale(1.1)">
    <path d="M23.02 10.59a8.578 8.578 0 0 0-.862-3.034 8.911 8.911 0 0 0-1.789-2.445c.337-1.342-.413-2.505-.413-2.505-1.292-.08-2.113.4-2.416.62-.052-.02-.102-.044-.154-.064-.22-.089-.446-.172-.677-.247-.231-.073-.47-.14-.711-.197a9.867 9.867 0 0 0-.875-.161C14.557.753 12.94 0 12.94 0c-1.804 1.145-2.147 2.744-2.147 2.744l-.018.093a8.869 8.869 0 0 0-2.678 1.267l-.063-.029c-2.497-.955-4.716.195-4.716.195-.203 2.658.996 4.33 1.235 4.636a11.608 11.608 0 0 0-.607 2.635C1.636 12.677.953 15.014.953 15.014c1.926 2.214 4.171 2.351 4.171 2.351.003-.002.006-.002.006-.005.285.509.615.994.986 1.446.156.19.32.371.488.548-.704 2.009.099 3.68.099 3.68 2.144.08 3.553-.937 3.849-1.173a9.784 9.784 0 0 0 3.164.501h.08l.265-.01c1.01 1.44 2.788 1.646 2.788 1.646 1.264-1.332 1.337-2.653 1.337-2.94v-.118c.265-.187.52-.387.758-.6a7.875 7.875 0 0 0 1.415-1.7c1.43.083 2.437-.885 2.437-.885-.236-1.49-1.085-2.216-1.264-2.354l-.065-.046c.008-.092.016-.18.02-.27.011-.162.016-.323.016-.48v-.253l-.013-.233a1.891 1.891 0 0 0-.01-.13l-.047-.371a6.215 6.215 0 0 0-2.032-3.73 6.015 6.015 0 0 0-4.072-1.508l-.214.013a4.777 4.777 0 0 0-3.335 1.695c-.332.4-.592.84-.768 1.297a4.594 4.594 0 0 0-.312 1.817l.016.255a3.615 3.615 0 0 0 .698 1.82 3.53 3.53 0 0 0 2.798 1.419l.176-.005.161-.013c.041-.003.086-.01.128-.013l.119-.028a1.18 1.18 0 0 0 .112-.02l.109-.024a2.634 2.634 0 0 0 .914-.415l.085-.065a.248.248 0 0 0-.27-.41l-.078.042a2.476 2.476 0 0 1-.758.212l-.166.008-.08-.002-.126-.006-.068 0a2.59 2.59 0 0 1-.859-.229 2.52 2.52 0 0 1-1.472-1.913 2.306 2.306 0 0 1-.029-.444l.006-.122.007-.114a3.163 3.163 0 0 1 1.352-2.29 3.12 3.12 0 0 1 1.713-.531h.06l.141.005.071.008a4.041 4.041 0 0 1 1.635.49 3.94 3.94 0 0 1 1.602 1.662 3.77 3.77 0 0 1 .397 1.414l.01.226v.21l-.01.247a6.195 6.195 0 0 1-.347 1.566 5.31 5.31 0 0 1-.624 1.13 5.052 5.052 0 0 1-3.886 2.08h-.326a6.607 6.607 0 0 1-1.716-.265 6.776 6.776 0 0 1-4.146-3.424 6.616 6.616 0 0 1-.714-2.596l-.01-.252v-.27l.003-.337c.008-.22.026-.45.054-.678a8.707 8.707 0 0 1 .753-2.632 7.04 7.04 0 0 1 1.456-2.1 5.925 5.925 0 0 1 1.477-1.069l.411-.197a7.177 7.177 0 0 1 .852-.309l.593-.15.302-.06.153-.024.34-.044.275-.031.215-.02.042-.002.257-.016h.06l.182-.01a7.999 7.999 0 0 1 3.756.805 8.253 8.253 0 0 1 1.672 1.09l.179.155c.114.102.224.212.325.324a8.671 8.671 0 0 1 1.41 1.978l.12.234.14.309a8.848 8.848 0 0 1 .32 1.031.19.19 0 0 0 .373-.042c.01-.246.002-.532-.024-.856z" fill="#F59E0B"/>
  </g>
  <text x="1224" y="85" class="f" font-size="14" font-weight="700" fill="#1E293B">Prometheus + Grafana</text>
  <text x="1224" y="102" class="f" font-size="10" fill="#C2410C">PromQL dashboards · Dependency Explorer</text>

  <!-- Platform 2: Datadog -->
  <rect x="1150" y="166" width="280" height="62" rx="10" fill="rgba(124,58,237,0.06)" stroke="rgba(124,58,237,0.45)" stroke-width="1.5"/>
  <g transform="translate(1164,178) scale(1.333)">
    <path d="M19.57 17.04l-1.997-1.316-1.665 2.782-1.937-.567-1.706 2.604.087.82 9.274-1.71-.538-5.794zm-8.649-2.498l1.488-.204c.241.108.409.15.697.223.45.117.97.23 1.741-.16.18-.088.553-.43.704-.625l6.096-1.106.622 7.527-10.444 1.882zm11.325-2.712l-.602.115L20.488 0 .789 2.285l2.427 19.693 2.306-.334c-.184-.263-.471-.581-.96-.989-.68-.564-.44-1.522-.039-2.127.53-1.022 3.26-2.322 3.106-3.956-.056-.594-.15-1.368-.702-1.898-.02.22.017.432.017.432s-.227-.289-.34-.683c-.112-.15-.2-.199-.319-.4-.085.233-.073.503-.073.503s-.186-.437-.216-.807c-.11.166-.137.48-.137.48s-.241-.69-.186-1.062c-.11-.323-.436-.965-.343-2.424.6.421 1.924.321 2.44-.439.171-.251.288-.939-.086-2.293-.24-.868-.835-2.16-1.066-2.651l-.028.02c.122.395.374 1.223.47 1.625.293 1.218.372 1.642.234 2.204-.116.488-.397.808-1.107 1.165-.71.358-1.653-.514-1.713-.562-.69-.55-1.224-1.447-1.284-1.883-.062-.477.275-.763.445-1.153-.243.07-.514.192-.514.192s.323-.334.722-.624c.165-.109.262-.178.436-.323a9.762 9.762 0 0 0-.456.003s.42-.227.855-.392c-.318-.014-.623-.003-.623-.003s.937-.419 1.678-.727c.509-.208 1.006-.147 1.286.257.367.53.752.817 1.569.996.501-.223.653-.337 1.284-.509.554-.61.99-.688.99-.688s-.216.198-.274.51c.314-.249.66-.455.66-.455s-.134.164-.259.426l.03.043c.366-.22.797-.394.797-.394s-.123.156-.268.358c.277-.002.838.012 1.056.037 1.285.028 1.552-1.374 2.045-1.55.618-.22.894-.353 1.947.68.903.888 1.609 2.477 1.259 2.833-.294.295-.874-.115-1.516-.916a3.466 3.466 0 0 1-.716-1.562 1.533 1.533 0 0 0-.497-.85s.23.51.23.96c0 .246.03 1.165.424 1.68-.039.076-.057.374-.1.43-.458-.554-1.443-.95-1.604-1.067.544.445 1.793 1.468 2.273 2.449.453.927.186 1.777.416 1.997.065.063.976 1.197 1.15 1.767.306.994.019 2.038-.381 2.685l-1.117.174c-.163-.045-.273-.068-.42-.153.08-.143.241-.5.243-.572l-.063-.111c-.348.492-.93.97-1.414 1.245-.633.359-1.363.304-1.838.156-1.348-.415-2.623-1.327-2.93-1.566 0 0-.01.191.048.234.34.383 1.119 1.077 1.872 1.56l-1.605.177.759 5.908c-.337.048-.39.071-.757.124-.325-1.147-.946-1.895-1.624-2.332-.599-.384-1.424-.47-2.214-.314l-.05.059a2.851 2.851 0 0 1 1.863.444c.654.413 1.181 1.481 1.375 2.124.248.822.42 1.7-.248 2.632-.476.662-1.864 1.028-2.986.237.3.481.705.876 1.25.95.809.11 1.577-.03 2.106-.574.452-.464.69-1.434.628-2.456l.714-.104.258 1.834 11.827-1.424zM15.05 6.848c-.034.075-.085.125-.007.37l.004.014.013.032.032.073c.14.287.295.558.552.696.067-.011.136-.019.207-.023.242-.01.395.028.492.08.009-.048.01-.119.005-.222-.018-.364.072-.982-.626-1.308-.264-.122-.634-.084-.757.068a.302.302 0 0 1 .058.013c.186.066.06.13.027.207m1.958 3.392c-.092-.05-.52-.03-.821.005-.574.068-1.193.267-1.328.372-.247.191-.135.523.047.66.511.382.96.638 1.432.575.29-.038.546-.497.728-.914.124-.288.124-.598-.058-.698m-5.077-2.942c.162-.154-.805-.355-1.556.156-.554.378-.571 1.187-.041 1.646.053.046.096.078.137.104a4.77 4.77 0 0 1 1.396-.412c.113-.125.243-.345.21-.745-.044-.542-.455-.456-.146-.749" fill="#632CA6"/>
  </g>
  <text x="1204" y="195" class="f" font-size="14" font-weight="700" fill="#1E293B">Datadog</text>
  <text x="1204" y="212" class="f" font-size="10" fill="#6D28D9">OTLP ingest · Dependency monitors</text>

  <!-- Platform 3: Dynatrace -->
  <rect x="1150" y="276" width="280" height="62" rx="10" fill="rgba(14,116,210,0.06)" stroke="rgba(14,116,210,0.45)" stroke-width="1.5"/>
  <g transform="translate(1164,288) scale(1.333)">
    <path d="M9.372 0c-.31.006-.93.09-1.521.654-.872.824-5.225 4.957-6.973 6.617-.79.754-.72 1.595-.72 1.664v.377c.067-.292.187-.5.427-.825.496-.616 1.3-.788 1.627-.822a64.238 64.238 0 016.528-.55c4.335-.136 7.197.226 7.197.226l6.085-5.794s-3.188-.6-6.82-1.027a93.4 93.4 0 00-5.64-.514c-.02 0-.09-.008-.192-.006zm13.56 2.508l-6.066 5.79s.222 2.881-.137 7.2c-.189 2.45-.584 4.866-.875 6.494-.052.326-.256 1.114-.925 1.594-.29.198-.49.295-.748.363 1.546-.51 1.091-7.047 1.091-7.047-4.335.137-7.214-.223-7.214-.223l-6.085 5.793s3.223.634 6.856 1.045c2.056.24 4.833.429 5.227.463.023 0 .045-.007.068-.012-.013.003-.022.009-.035.012.138 0 .26.015.38.015.084 0 .924.105 1.712-.648 1.748-1.663 6.084-5.81 6.94-6.634.789-.754.72-1.594.72-1.68a81.846 81.846 0 00-.206-5.654 101.75 101.75 0 00-.701-6.872zM3.855 8.306c-1.73.002-3.508.208-3.696 1.021.017 1.216.05 3.137.205 5.28.24 3.65.703 6.887.703 6.887l6.083-5.79c-.017.016-.24-2.88.12-7.2 0 0-1.684-.201-3.416-.2z" fill="#0E74D2"/>
  </g>
  <text x="1204" y="305" class="f" font-size="14" font-weight="700" fill="#1E293B">Dynatrace</text>
  <text x="1204" y="322" class="f" font-size="10" fill="#0E74D2">OTLP metrics · Dependency analytics</text>

  <!-- Platform 4: Any OTEL Backend -->
  <rect x="1150" y="376" width="280" height="62" rx="10" fill="rgba(37,99,235,0.03)" stroke="rgba(37,99,235,0.25)" stroke-width="1.3" stroke-dasharray="5,4"/>
  <g transform="translate(1164,388) scale(1.333)" opacity="0.4">
    <path d="M12.6974 13.1173c-1.0224 1.0224-1.0224 2.68 0 3.7024 1.0224 1.0224 2.68 1.0224 3.7024 0 1.0224-1.0223 1.0224-2.68 0-3.7024-1.0223-1.0223-2.68-1.0223-3.7024 0zm2.7677 2.7701c-.5063.5063-1.3267.5063-1.833 0s-.5063-1.3266 0-1.833c.5063-.5062 1.3267-.5062 1.833 0 .5063.504.5063 1.3267 0 1.833zM16.356.2355l-1.6041 1.6042c-.314.314-.314.83 0 1.144L21.015 9.247c.314.314.83.314 1.144 0l1.6042-1.6041c.314-.314.314-.83 0-1.144L17.4976.2354c-.314-.314-.8276-.314-1.1416 0zM5.1173 20.734c.2848-.2848.2848-.7497 0-1.0345l-.8155-.8155c-.2848-.2848-.7497-.2848-1.0345 0l-1.6845 1.6845-.0024.0024-.4625-.4625c-.2556-.2556-.6718-.2556-.925 0-.2556.2556-.2556.6718 0 .925l2.775 2.775c.2556.2556.6718.2556.925 0 .2532-.2556.2556-.6718 0-.925l-.4625-.4625.0024-.0024zm8.4856-15.893-3.5637 3.5637c-.3164.3164-.3164.8374 0 1.1538l2.2006 2.2005c1.5554-1.1197 3.7365-.981 5.1361.4187l1.7819-1.7818c.3164-.3165.3164-.8374 0-1.1538l-4.401-4.401c-.3165-.319-.8374-.319-1.1539 0zm-2.2881 7.8455-1.2999-1.2999c-.3043-.3043-.8033-.3043-1.1076 0l-4.5836 4.586c-.3042.3043-.3042.8033 0 1.1076l2.5973 2.5973c.3043.3043.8033.3043 1.1076 0l2.9478-2.9527c-.6231-1.2877-.5112-2.8431.3384-4.0383z" fill="#2563EB"/>
  </g>
  <text x="1204" y="405" class="f" font-size="14" font-weight="700" fill="rgba(30,41,59,0.5)">Any OTEL Backend</text>
  <text x="1204" y="422" class="f" font-size="10" fill="rgba(37,99,235,0.5)">OTLP-compatible · Vendor-neutral</text>

</svg>
